<svg width="512" height="512" viewBox="0 0 512 512" fill="none" xmlns="http://www.w3.org/2000/svg">
  <rect width="512" height="512" rx="112" fill="#F8FFFA"/>
  <path d="M250 167.5C209.5 136.8 165.8 130.8 128 145.7V333.4C167.5 318.2 209.8 326.5 250 360.8V167.5Z" fill="#16A34A"/>
  <path d="M262 167.5C302.5 136.8 346.2 130.8 384 145.7V333.4C344.5 318.2 302.2 326.5 262 360.8V167.5Z" fill="#16A34A"/>
  <path d="M128 333.4C167.5 318.2 209.8 326.5 250 360.8" stroke="#15803D" stroke-width="18" stroke-linecap="round" stroke-linejoin="round"/>
  <path d="M384 333.4C344.5 318.2 302.2 326.5 262 360.8" stroke="#15803D" stroke-width="18" stroke-linecap="round" stroke-linejoin="round"/>
  <path d="M256 167V361" stroke="#F8FFFA" stroke-width="18" stroke-linecap="round"/>
  <path d="M111 354C159 337 205 348 249 384C253 387.3 259 387.3 263 384C307 348 353 337 401 354" stroke="#16A34A" stroke-width="22" stroke-linecap="round" stroke-linejoin="round"/>
</svg>
